<html>
<head>
<meta charset="UTF-8">
<meta name="viewport" content="width=device-width, initial-scale=1.0"/>

<style>
.comment
{
    padding-left: 20px;
    margin-top: 4px;
    margin-right: 4px;
    margin-bottom: 4px;
    border: 2px #000 solid;
}
.submission
{
    border: 4px #00f solid;
    padding-left: 20px;
}
.hidden
{
    display: none;
}
</style>
</head>
<body><div class="submission" id="t3_6af8z1">
    <p class="userinfo">
        <a href="https://www.reddit.com/u/TheMrMcGibblets">TheMrMcGibblets</a>
        <span class="score"> | 34 points</span>
        <span class="timestamp"> | May 10 2017 20:05:29</span>
    </p>
    <strong>[MOVIE] Layer Cake (2004) 1080p Bluray x265 HEVC 10bit AAC 5.1 [2.16GB]</strong>
    <p><p>Add mega</p>
<p>.nz/#!tXIUkBhb</p>
<p>!3f1INz_EozfSUWhrKhyr_Xul5KUKHFjPtMAEaA1uTbI</p>
<pre><code>General
Format : Matroska
Format version : Version 4 / Version 2
File size : 2.16 GiB
Duration : 1 h 45 min
Overall bit rate : 2 938 kb/s
Encoded date : UTC 2017-02-21 07:59:45
Writing application : mkvmerge v9.6.0 (\'Slave To Your Mind\') 64bit
Writing library : libebml v1.3.4 + libmatroska v1.4.5

Video
ID : 1
Format : HEVC
Format/Info : High Efficiency Video Coding
Format profile : Main 10@L4@Main
Codec ID : V_MPEGH/ISO/HEVC
Duration : 1 h 45 min
Bit rate : 2 501 kb/s
Width : 1 912 pixels
Height : 796 pixels
Display aspect ratio : 2.40:1
Frame rate mode : Constant
Frame rate : 23.976 (24000/1001) FPS
Color space : YUV
Chroma subsampling : 4:2:0
Bit depth : 10 bits
Bits/(Pixel*Frame) : 0.069
Stream size : 1.84 GiB (85%)
Writing library : x265 2.3+7-c15f8bce9f4b:[Windows][GCC 6.3.0][64 bit] 10bit
Encoding settings : cpuid=1173503 / frame-threads=3 / numa-pools=8 / wpp / no-pmode / no-pme / no-psnr / no-ssim / log-level=2 / input-csp=1 / input-res=1912x796 / interlace=0 / total-frames=151604 / level-idc=0 / high-tier=1 / uhd-bd=0 / ref=4 / no-allow-non-conformance / no-repeat-headers / annexb / no-aud / no-hrd / info / hash=0 / no-temporal-layers / open-gop / min-keyint=23 / keyint=250 / bframes=4 / b-adapt=2 / b-pyramid / bframe-bias=0 / rc-lookahead=25 / lookahead-slices=4 / scenecut=40 / no-intra-refresh / ctu=64 / min-cu-size=8 / rect / no-amp / max-tu-size=32 / tu-inter-depth=1 / tu-intra-depth=1 / limit-tu=0 / rdoq-level=2 / dynamic-rd=0.00 / signhide / no-tskip / nr-intra=0 / nr-inter=0 / no-constrained-intra / strong-intra-smoothing / max-merge=3 / limit-refs=3 / limit-modes / me=3 / subme=3 / merange=57 / temporal-mvp / weightp / no-weightb / no-analyze-src-pics / deblock=0:0 / sao / no-sao-non-deblock / rd=4 / no-early-skip / rskip / no-fast-intra / no-tskip-fast / no-cu-lossless / no-b-intra / rdpenalty=0 / psy-rd=2.00 / psy-rdoq=1.00 / no-rd-refine / analysis-mode=0 / no-lossless / cbqpoffs=0 / crqpoffs=0 / rc=abr / bitrate=2500 / qcomp=0.60 / qpstep=4 / stats-write=0 / stats-read=2 / cplxblur=20.0 / qblur=0.5 / ipratio=1.40 / pbratio=1.30 / aq-mode=2 / aq-strength=1.00 / cutree / zone-count=0 / no-strict-cbr / qg-size=32 / no-rc-grain / qpmax=69 / qpmin=0 / sar=0 / overscan=0 / videoformat=5 / range=0 / colorprim=2 / transfer=2 / colormatrix=2 / chromaloc=0 / display-window=0 / max-cll=0,0 / min-luma=0 / max-luma=1023 / log2-max-poc-lsb=8 / vui-timing-info / vui-hrd-info / slices=1 / opt-qp-pps / opt-ref-list-length-pps / no-multi-pass-opt-rps / scenecut-bias=0.05 / no-opt-cu-delta-qp / no-aq-motion / no-hdr / no-hdr-opt / Capture-colorprim=3
Default : Yes
Forced : No

Audio #1
ID : 2
Format : AAC
Format/Info : Advanced Audio Codec
Format profile : LC
Codec ID : A_AAC
Duration : 1 h 45 min
Bit rate : 333 kb/s
Channel(s) : 6 channels
Channel positions : Front: L C R, Side: L R, LFE
Sampling rate : 48.0 kHz
Frame rate : 46.875 FPS (1024 spf)
Compression mode : Lossy
Delay relative to video : 20 ms
Stream size : 251 MiB (11%)
Language : English
Default : Yes
Forced : No

Audio #2
ID : 3
Format : AAC
Format/Info : Advanced Audio Codec
Format profile : HE-AAC / LC
Codec ID : A_AAC
Duration : 1 h 45 min
Bit rate : 72.0 kb/s
Channel(s) : 2 channels
Channel positions : Front: L R
Sampling rate : 48.0 kHz / 24.0 kHz
Frame rate : 23.438 FPS (1024 spf)
Compression mode : Lossy
Delay relative to video : 40 ms
Stream size : 53.4 MiB (2%)
Title : Commentary
Language : English
Default : No
Forced : No

Text #1
ID : 4
Format : VobSub
Muxing mode : zlib
Codec ID : S_VOBSUB
Codec ID/Info : Picture based subtitle format used on DVDs
Duration : 1 h 40 min
Bit rate : 6 806 b/s
Count of elements : 1105
Stream size : 4.89 MiB (0%)
Language : English
Default : No
Forced : No

Text #2
ID : 5
Format : VobSub
Muxing mode : zlib
Codec ID : S_VOBSUB
Codec ID/Info : Picture based subtitle format used on DVDs
Duration : 1 h 40 min
Bit rate : 7 160 b/s
Count of elements : 1142
Stream size : 5.14 MiB (0%)
Language : German
Default : No
Forced : No

Text #3
ID : 6
Format : VobSub
Muxing mode : zlib
Codec ID : S_VOBSUB
Codec ID/Info : Picture based subtitle format used on DVDs
Duration : 7 s 204 ms
Bit rate : 12.4 kb/s
Count of elements : 3
Stream size : 10.9 KiB (0%)
Title : Forced
Language : German
Default : No
Forced : No

Text #4
ID : 7
Format : VobSub
Muxing mode : zlib
Codec ID : S_VOBSUB
Codec ID/Info : Picture based subtitle format used on DVDs
Duration : 1 h 41 min
Bit rate : 11.7 kb/s
Count of elements : 1838
Stream size : 8.51 MiB (0%)
Title : Commentary
Language : German
Default : No
Forced : No

Text #5
ID : 8
Format : VobSub
Muxing mode : zlib
Codec ID : S_VOBSUB
Codec ID/Info : Picture based subtitle format used on DVDs
Duration : 1 h 40 min
Bit rate : 6 377 b/s
Count of elements : 1116
Stream size : 4.58 MiB (0%)
Language : Turkish
Default : No
Forced : No
</code></pre></p>
    <p class="toolbar">
        <a href="https://www.reddit.com/r/megalinks/comments/6af8z1">permalink</a>
    </p>
</div>
<div class="comment" id="t1_dhe1yz0">
    <p class="userinfo">
        <a
        class="toggle_hide_button"
        href="javascript:void(0)"
        onclick="toggle_collapse(this.parentElement.parentElement)">[-]
        </a>
        <a href="https://www.reddit.com/u/boltrop">boltrop</a>
        <span class="score"> | 2 points</span>
        <span class="timestamp"> | May 10 2017 20:09:07</span>
    </p>
    <div class="collapsible">
        <h3><a href="https://images-na.ssl-images-amazon.com/images/M/MV5BMTI5MTE1OTAzOV5BMl5BanBnXkFtZTcwNDc2OTgyMQ@@._V1_.jpg">Layer Cake</a> (2004)</h3>
<p><strong>Genre</strong>: Crime, Drama, Thriller</p>
<p><strong>Rating</strong>:  7.4 (139727 votes)</p>
<p><strong>Certification</strong>: TV-MA</p>
<p><strong>Runtime</strong>: 105 min</p>
<hr>
<blockquote>
<p><strong>Director(s)</strong>: <a href="https://www.imdb.com/name/nm0891216/">Matthew Vaughn</a></p>
<p><strong>Writer(s)</strong>: <a href="https://www.imdb.com/name/nm1129753/">J.J. Connolly</a>, <a href="https://www.imdb.com/name/nm1129753/">J.J. Connolly</a></p>
<p><strong>Cast</strong>: <a href="https://www.imdb.com/name/nm0185819/">Daniel Craig</a>, <a href="https://www.imdb.com/name/nm1092227/">Sienna Miller</a>, <a href="https://www.imdb.com/name/nm0002091/">Michael Gambon</a>, <a href="https://www.imdb.com/name/nm0362766/">Tom Hardy</a></p>
<p><strong>Plot</strong>: A successful cocaine dealer gets two tough assignments from his boss on the eve of his planned early retirement.</p>
</blockquote>
<hr>
<p>^This ^summary ^is ^taken ^from <a href="https://www.imdb.com/title/tt0375912/">^imdb.com</a> ^| ^For ^feedback ^or ^suggestions ^contact <a href="http://www.reddit.com/message/compose/?to=indigo6alpha">^/u/indigo6alpha</a></p>
        <p class="toolbar">
            <a href="https://www.reddit.com/r/megalinks/comments/6af8z1/_/dhe1yz0">permalink</a>
        </p>
        
    </div>
</div>

<div class="comment" id="t1_dhej052">
    <p class="userinfo">
        <a
        class="toggle_hide_button"
        href="javascript:void(0)"
        onclick="toggle_collapse(this.parentElement.parentElement)">[-]
        </a>
        <a href="https://www.reddit.com/u/dosemeele">dosemeele</a>
        <span class="score"> | 2 points</span>
        <span class="timestamp"> | May 11 2017 01:57:34</span>
    </p>
    <div class="collapsible">
        <p>Thank you! </p>
        <p class="toolbar">
            <a href="https://www.reddit.com/r/megalinks/comments/6af8z1/_/dhej052">permalink</a>
        </p>
        
    </div>
</div>

<div class="comment" id="t1_dhe20w3">
    <p class="userinfo">
        <a
        class="toggle_hide_button"
        href="javascript:void(0)"
        onclick="toggle_collapse(this.parentElement.parentElement)">[-]
        </a>
        <a href="https://www.reddit.com/u/SubZorro">SubZorro</a>
        <span class="score"> | 1 points</span>
        <span class="timestamp"> | May 10 2017 20:10:05</span>
    </p>
    <div class="collapsible">
        <h5>Subtitles for this movie:</h5>
<hr>
<blockquote>
<ul>
<li>
<p><strong>Layer.Cake.2004.DVD5.720p.BluRay.x264-REVEiLLE</strong> - <code>1 CD</code> - <a href="http://dl.opensubtitles.org/en/download/vrf-e0267cd1/sub/3341078">Download Subtitle</a></p>
</li>
<li>
<p><strong>Layer.Cake.2004.BluRay.720p.x264.DTS.WiKi</strong> - <code>1 CD</code> - <a href="http://dl.opensubtitles.org/en/download/vrf-dd799f4d/sub/5355598">Download Subtitle</a></p>
</li>
<li>
<p><strong>Layer Cake(2004)BRRip-Xvid-720-ToPKaT</strong> - <code>1 CD</code> - <a href="http://dl.opensubtitles.org/en/download/vrf-3803148b/sub/4048694">Download Subtitle</a></p>
</li>
<li>
<p><strong>Layer.Cake.2004.BluRay.720p.AC3.x264.dxva-EuReKa</strong> - <code>1 CD</code> - <a href="http://dl.opensubtitles.org/en/download/vrf-2036a98c/sub/3254396">Download Subtitle</a></p>
</li>
<li>
<p><strong>Layer Cake (2004)</strong> - <code>1 CD</code> - <a href="http://dl.opensubtitles.org/en/download/vrf-1ca854b0/sub/97765">Download Subtitle</a></p>
</li>
<li>
<p><strong>Layer.Cake.2004.DVDRip.XviD-LRC</strong> - <code>1 CD</code> - <a href="http://dl.opensubtitles.org/en/download/vrf-b49cac4e/sub/3684415">Download Subtitle</a></p>
</li>
<li>
<p><strong>Layer Cake [2004] (Crime, Drama, Thriller).DvDrip[Eng]-aXXo</strong> - <code>1 CD</code> - <a href="http://dl.opensubtitles.org/en/download/vrf-d73753e4/sub/3173872">Download Subtitle</a></p>
</li>
<li>
<p><strong>Layer Cake (Xvid)</strong> - <code>1 CD</code> - <a href="http://dl.opensubtitles.org/en/download/vrf-5b057198/sub/3439503">Download Subtitle</a></p>
</li>
<li>
<p><strong>Layer Cake aXXo [DXO]</strong> - <code>1 CD</code> - <a href="http://dl.opensubtitles.org/en/download/vrf-d033ffd7/sub/3127356">Download Subtitle</a></p>
</li>
</ul>
</blockquote>
<hr>
<p>^This ^list ^of ^subtitles ^are ^taken ^from <a href="http://www.opensubtitles.org">^opensubtitles.org</a> ^| ^For ^feedback ^or ^suggestions ^contact <a href="http://www.reddit.com/message/compose/?to=indigo6alpha">^/u/indigo6alpha</a></p>
        <p class="toolbar">
            <a href="https://www.reddit.com/r/megalinks/comments/6af8z1/_/dhe20w3">permalink</a>
        </p>
        
    </div>
</div>
</body>

<script>
function toggle_collapse(comment_div)
{
    var button = comment_div.getElementsByClassName("toggle_hide_button")[0];
    var collapsible = comment_div.getElementsByClassName("collapsible")[0];
    if (collapsible.classList.contains("hidden"))
    {
        collapsible.classList.remove("hidden");
        button.innerText = "[-]";
    }
    else
    {
        collapsible.classList.add("hidden");
        button.innerText = "[+]";
    }
}
</script>
</html>
